<?xml version="1.0" encoding="UTF-8"?>
<svg xmlns="http://www.w3.org/2000/svg" id="Layer_1" data-name="Layer 1" viewBox="0 0 24 24">
  <path d="m23.899,17.584c-1.036-1.891-2.881-3.583-2.892-3.602.279-.179,1.722-1.115,2.681-2.002.237-.218.348-.539.296-.857-.053-.327-.264-.604-.565-.742-.762-.347-2.878-1.043-4.419-1.377v-.786c0-1.342-.958-2.506-2.278-2.77-2.982-.595-6.461-.595-9.443,0-1.32.264-2.278,1.428-2.278,2.77v.786c-1.541.334-3.657,1.03-4.42,1.377-.301.138-.512.415-.563.74-.053.32.058.641.293.858.961.888,2.403,1.824,2.688,2.01-.016.012-1.86,1.703-2.896,3.594-.162.295-.126.642.096.908.164.194.388.298.62.298.091,0,.184-.016.275-.049,1.326-.463,4.683-1.247,6.685-1.613.709-.13,1.224-.75,1.224-1.474v-1.389c.898-.131,1.924-.229,3-.229s2.101.098,3,.229v1.389c0,.724.515,1.344,1.224,1.474,2.002.366,5.358,1.15,6.679,1.611.094.034.188.051.281.051.234,0,.458-.104.623-.3.219-.264.255-.611.093-.905ZM3.554,14.819c.206-.123.446-.411.446-.819,0-.389-.238-.697-.47-.86-.163-.104-1.624-1.046-2.535-1.849.617-.281,2.518-.923,4.005-1.265v3.939c0,.502.25.969.668,1.248l1.516,1.01c-1.719.332-4.411.945-5.96,1.423.935-1.497,2.345-2.827,2.33-2.827Zm2.446-.957v-5.644c0-.866.62-1.619,1.474-1.79,2.854-.569,6.199-.569,9.053,0,.854.17,1.474.923,1.474,1.79v5.644c-.955-.263-3.311-.826-6-.826s-5.045.563-6,.826Zm10.817,2.361l1.515-1.01c.418-.279.668-.746.668-1.248v-3.939c1.487.342,3.388.978,4.011,1.219-.917.849-2.378,1.79-2.567,1.912-.205.146-.443.454-.443.843,0,.409.241.697.371.764.016.014,1.457,1.365,2.405,2.882-1.544-.477-4.239-1.091-5.96-1.423Z"/>
</svg>
